<svg width="43" height="43" viewBox="0 0 43 43" fill="none" xmlns="http://www.w3.org/2000/svg">
<path d="M15.1664 20.2334C17.1964 18.2034 20.7367 18.2034 22.7667 20.2334L24.0334 21.5001L26.5668 18.9667L25.3001 17.7C23.6106 16.0087 21.3602 15.0752 18.9666 15.0752C16.5729 15.0752 14.3226 16.0087 12.633 17.7L8.83111 21.5001C7.15464 23.182 6.21326 25.4598 6.21326 27.8346C6.21326 30.2093 7.15464 32.4871 8.83111 34.169C9.66222 35.0013 10.6496 35.6612 11.7365 36.1107C12.8234 36.5602 13.9884 36.7905 15.1647 36.7884C16.3412 36.7909 17.5066 36.5607 18.5938 36.1112C19.6811 35.6616 20.6687 35.0016 21.5 34.169L22.7667 32.9023L20.2333 30.3689L18.9666 31.6356C17.9569 32.6407 16.5902 33.205 15.1655 33.205C13.7409 33.205 12.3742 32.6407 11.3645 31.6356C10.3585 30.6264 9.79361 29.2595 9.79361 27.8346C9.79361 26.4096 10.3585 25.0427 11.3645 24.0335L15.1664 20.2334Z" fill="black"/>
<path d="M21.5 8.83124L20.2333 10.098L22.7667 12.6314L24.0334 11.3647C25.0431 10.3595 26.4098 9.79521 27.8344 9.79521C29.2591 9.79521 30.6258 10.3595 31.6355 11.3647C32.6415 12.3739 33.2064 13.7407 33.2064 15.1657C33.2064 16.5907 32.6415 17.9575 31.6355 18.9667L27.8335 22.7668C25.8036 24.7968 22.2633 24.7968 20.2333 22.7668L18.9666 21.5001L16.4332 24.0335L17.6999 25.3002C19.3894 26.9916 21.6397 27.925 24.0334 27.925C26.4271 27.925 28.6774 26.9916 30.367 25.3002L34.1689 21.5001C35.8453 19.8183 36.7867 17.5404 36.7867 15.1657C36.7867 12.791 35.8453 10.5131 34.1689 8.83124C32.4875 7.1539 30.2094 6.21191 27.8344 6.21191C25.4594 6.21191 23.1814 7.1539 21.5 8.83124Z" fill="black"/>
</svg>
